<?xml version="1.0" standalone="no"?>
<!DOCTYPE svg PUBLIC "-//W3C//DTD SVG 20010904//EN"
 "http://www.w3.org/TR/2001/REC-SVG-20010904/DTD/svg10.dtd">
<svg version="1.0" xmlns="http://www.w3.org/2000/svg"
 width="224.000000pt" height="215.000000pt" viewBox="0 0 224.000000 215.000000"
 preserveAspectRatio="xMidYMid meet">

<g transform="translate(0.000000,215.000000) scale(0.100000,-0.100000)"
fill="#000000" stroke="none">
<path d="M0 1075 l0 -1075 1120 0 1120 0 0 1075 0 1075 -555 0 -555 0 0 -81 0
-82 67 -90 c84 -113 129 -147 192 -147 62 1 170 39 219 78 54 43 64 40 20 -5
-40 -42 -68 -119 -68 -188 0 -54 27 -95 138 -207 l87 -88 82 0 c49 0 83 -4 83
-10 0 -6 -36 -10 -88 -10 -80 0 -92 -3 -133 -29 -137 -89 -201 -222 -164 -347
13 -47 29 -70 82 -126 37 -37 63 -71 59 -76 -4 -4 -34 21 -66 55 l-59 63 -108
6 c-71 4 -123 2 -151 -5 -50 -14 -115 -73 -162 -148 -26 -41 -30 -56 -30 -117
l0 -71 39 -22 c41 -23 71 -73 71 -118 l0 -26 29 20 c16 11 47 52 71 92 23 39
44 68 47 65 3 -2 -14 -41 -37 -85 -34 -62 -54 -88 -94 -116 l-51 -37 56 7 c48
5 64 2 123 -25 38 -17 66 -33 63 -36 -3 -3 -35 4 -72 16 -54 18 -76 21 -128
14 l-62 -8 62 -10 c54 -10 69 -17 107 -55 25 -25 44 -46 42 -49 -2 -2 -26 12
-53 31 -36 27 -63 37 -108 42 l-60 7 41 -43 41 -44 -13 -48 c-17 -67 -27 -72
-22 -11 4 47 2 55 -28 90 -28 34 -33 36 -39 21 -7 -17 -8 -17 -21 0 -13 17
-13 17 -14 -1 0 -19 -1 -19 -13 -3 -11 16 -15 15 -46 -17 -30 -30 -33 -39 -30
-80 5 -61 -6 -58 -21 5 l-12 51 38 40 39 40 -55 -6 c-39 -5 -70 -17 -108 -43
-29 -20 -55 -34 -57 -31 -3 2 16 24 41 49 40 39 52 45 112 55 l67 10 -67 8
c-56 7 -77 5 -133 -14 -36 -12 -69 -20 -71 -17 -3 3 21 18 53 33 48 23 70 28
126 27 37 -1 67 0 67 2 0 1 -23 18 -51 35 -42 28 -57 46 -90 112 -22 44 -38
82 -36 84 2 3 23 -27 46 -65 23 -38 55 -79 71 -91 l30 -21 0 33 c0 41 32 95
65 110 24 11 25 15 25 99 l0 87 -51 76 c-83 124 -158 154 -305 121 -74 -16
-82 -21 -146 -83 -37 -36 -68 -61 -68 -55 0 6 24 35 54 64 l55 54 11 134 c7
73 9 148 6 165 -8 42 -55 86 -133 125 -55 27 -72 31 -148 31 -50 0 -85 4 -85
10 0 6 36 10 88 10 86 0 90 1 142 38 123 85 172 210 139 352 -7 30 -23 58 -50
86 -23 23 -37 44 -32 47 6 4 25 -9 44 -29 34 -35 130 -73 225 -88 85 -14 158
40 222 165 29 56 32 70 32 150 l0 89 -555 0 -555 0 0 -1075z"/>
<path d="M1130 1905 c0 -86 83 -204 158 -225 50 -13 67 -13 137 5 41 11 70 26
90 47 30 30 30 30 5 24 -82 -22 -130 -28 -163 -22 -45 8 -101 56 -165 141 -25
33 -49 64 -54 70 -4 5 -8 -13 -8 -40z"/>
<path d="M1078 1872 c-39 -69 -102 -130 -150 -142 -42 -12 -111 -2 -192 26
l-41 15 35 -34 c39 -38 153 -87 202 -87 24 0 41 10 73 44 62 64 107 148 103
191 l-3 35 -27 -48z"/>
<path d="M1075 1753 c-16 -27 -47 -65 -67 -85 -31 -31 -45 -38 -77 -38 -21 0
-55 7 -74 15 -51 21 -55 19 -22 -15 31 -32 106 -60 160 -60 68 0 119 80 113
178 l-3 52 -30 -47z"/>
<path d="M1131 1759 c-1 -44 2 -49 68 -112 38 -37 77 -67 86 -67 47 0 105 24
136 57 33 34 33 36 9 29 -104 -26 -166 -13 -225 48 -22 22 -48 52 -57 66 l-17
25 0 -46z"/>
<path d="M1526 1721 c-32 -34 -76 -147 -76 -196 0 -38 16 -57 69 -84 20 -11
57 -38 83 -61 44 -38 51 -41 99 -38 l51 3 -96 103 c-53 56 -101 114 -106 128
-13 33 -13 90 0 133 5 19 8 36 7 38 -2 1 -16 -10 -31 -26z"/>
<path d="M695 1651 c0 -115 -25 -170 -112 -251 l-64 -60 48 0 c89 1 167 55
193 136 19 55 8 173 -19 217 -38 61 -46 54 -46 -42z"/>
<path d="M1130 1630 c0 -43 5 -59 31 -91 44 -56 62 -63 103 -44 18 9 46 30 62
46 l29 31 -36 -7 c-45 -8 -67 2 -136 68 l-53 50 0 -53z"/>
<path d="M788 1572 c3 -68 0 -83 -25 -132 -16 -32 -42 -64 -62 -77 l-34 -23
45 0 c31 0 56 8 85 27 59 38 77 76 71 147 -4 51 -10 62 -44 97 l-39 39 3 -78z"/>
<path d="M1422 1617 c-20 -21 -37 -54 -48 -95 -16 -57 -16 -65 -2 -95 10 -21
34 -42 66 -60 44 -24 61 -28 119 -25 l68 3 -40 28 c-22 16 -62 43 -90 60 -65
42 -74 69 -53 150 9 34 15 63 14 64 -1 2 -16 -12 -34 -30z"/>
<path d="M1097 1613 c-20 -55 -100 -79 -174 -53 -27 10 -26 9 9 -25 51 -48 86
-47 139 3 33 31 40 43 37 67 -3 28 -4 28 -11 8z"/>
<path d="M1325 1520 c-24 -25 -29 -39 -30 -82 0 -48 3 -54 34 -75 20 -13 49
-23 69 -23 l36 0 -41 35 c-47 40 -59 76 -44 131 6 21 9 39 7 41 -1 1 -15 -11
-31 -27z"/>
<path d="M890 1484 c0 -54 -2 -59 -44 -100 l-43 -44 42 0 c63 0 82 21 90 101
6 63 5 67 -19 83 l-26 16 0 -56z"/>
<path d="M1070 1509 c-19 -16 -45 -29 -59 -29 l-24 0 23 -25 c45 -48 104 -19
98 48 l-3 35 -35 -29z"/>
<path d="M1130 1517 c0 -15 7 -44 15 -63 12 -30 18 -34 37 -29 13 4 29 13 37
20 11 11 10 15 -9 25 -12 6 -35 26 -51 43 l-28 32 -1 -28z"/>
<path d="M956 1455 c-3 -9 -6 -31 -6 -48 0 -17 -7 -39 -17 -49 -15 -17 -14
-18 25 -18 75 0 93 46 38 99 -28 27 -34 30 -40 16z"/>
<path d="M1243 1438 c-28 -30 -28 -32 -1 -68 15 -21 30 -30 51 -30 l29 0 -23
18 c-14 12 -24 34 -28 61 l-6 43 -22 -24z"/>
<path d="M1083 1416 l-23 -13 25 -23 25 -23 0 36 c0 20 -1 37 -2 36 -2 -1 -13
-7 -25 -13z"/>
<path d="M1130 1390 c0 -34 10 -38 34 -12 15 18 15 19 -9 30 -24 11 -25 10
-25 -18z"/>
<path d="M1170 1365 l-23 -25 47 0 47 0 -18 25 c-22 31 -24 31 -53 0z"/>
<path d="M1042 1360 c-11 -18 -10 -20 19 -20 31 0 32 0 14 20 -10 11 -19 20
-19 20 -1 0 -7 -9 -14 -20z"/>
<path d="M576 1290 c62 -35 101 -79 109 -123 4 -18 2 -84 -4 -147 -5 -63 -9
-116 -7 -117 1 -1 17 10 35 24 44 35 101 153 101 210 0 35 -6 50 -32 78 -46
48 -160 105 -212 105 l-41 0 51 -30z"/>
<path d="M715 1282 c108 -59 139 -126 100 -219 -19 -45 -15 -50 15 -18 22 23
24 35 25 110 0 75 -2 86 -25 110 -37 40 -73 55 -132 55 l-53 0 70 -38z"/>
<path d="M833 1287 c38 -36 52 -79 45 -147 -2 -22 -1 -40 3 -40 4 0 21 16 37
35 33 36 48 89 37 124 -9 31 -66 61 -114 61 l-42 0 34 -33z"/>
<path d="M954 1289 c16 -18 26 -43 26 -62 l1 -32 24 30 c14 17 25 38 25 47 0
27 -29 48 -67 48 l-35 0 26 -31z"/>
<path d="M1037 1308 c6 -7 12 -19 14 -26 3 -9 12 -5 28 12 l24 26 -37 0 c-29
0 -36 -3 -29 -12z"/>
<path d="M1171 1294 c16 -17 25 -21 28 -12 2 7 8 19 14 26 7 9 0 12 -29 12
l-37 0 24 -26z"/>
<path d="M1238 1309 c-26 -15 -22 -61 7 -89 l25 -23 0 37 c0 26 7 44 25 61
l24 25 -32 0 c-18 0 -40 -5 -49 -11z"/>
<path d="M1329 1297 c-32 -21 -34 -27 -34 -75 1 -45 5 -57 31 -82 l30 -30 -1
60 c0 60 1 62 47 106 l47 44 -43 0 c-28 0 -55 -8 -77 -23z"/>
<path d="M1447 1290 c-67 -42 -85 -83 -69 -158 9 -43 20 -65 48 -92 20 -19 34
-27 31 -18 -3 9 -12 44 -18 77 -21 99 7 156 97 201 l39 19 -41 1 c-28 0 -54
-9 -87 -30z"/>
<path d="M1599 1306 c-60 -21 -103 -50 -127 -87 -20 -28 -23 -43 -19 -84 9
-79 35 -153 68 -188 l29 -32 -7 30 c-13 50 -6 141 15 187 24 54 62 100 125
149 l49 39 -49 0 c-26 -1 -64 -7 -84 -14z"/>
<path d="M1090 1285 c-12 -14 -12 -18 1 -25 10 -7 15 -5 17 5 6 28 -3 38 -18
20z"/>
<path d="M1130 1272 c0 -33 3 -35 33 -23 16 6 16 9 -8 31 l-25 23 0 -31z"/>
<path d="M1018 1210 l-33 -29 27 -1 c16 0 42 -13 63 -31 l35 -31 0 45 c0 25
-3 52 -6 61 -10 25 -51 19 -86 -14z"/>
<path d="M1140 1210 c-6 -12 -10 -39 -8 -61 l3 -41 38 31 c21 16 48 33 59 37
19 6 19 6 -3 30 -28 30 -74 32 -89 4z"/>
<path d="M934 1128 l-35 -33 59 3 c59 4 61 3 106 -40 l46 -45 0 37 c0 28 -8
44 -38 73 -50 49 -88 50 -138 5z"/>
<path d="M1181 1118 c-46 -38 -51 -45 -51 -82 l0 -41 24 36 c32 47 72 63 141
57 l56 -5 -38 39 c-20 21 -47 38 -59 38 -12 0 -44 -19 -73 -42z"/>
<path d="M893 1068 c-17 -6 -46 -26 -65 -45 l-33 -35 40 8 c22 5 70 9 107 9
77 0 103 -17 144 -95 l23 -45 1 48 c0 55 -15 90 -59 131 -34 33 -102 43 -158
24z"/>
<path d="M1212 1060 c-35 -15 -82 -97 -82 -144 l0 -40 33 54 c23 40 44 61 77
78 52 26 88 28 155 7 l49 -14 -30 29 c-25 25 -38 30 -104 34 -41 3 -85 2 -98
-4z"/>
<path d="M1251 993 c-67 -34 -122 -144 -120 -242 l0 -46 17 25 c9 14 41 50 72
81 70 72 108 84 244 75 l100 -6 -40 35 c-84 77 -207 112 -273 78z"/>
<path d="M865 983 c-66 -14 -115 -37 -141 -64 l-29 -31 25 7 c165 51 263 19
356 -119 l34 -51 0 49 c0 35 -9 64 -32 108 -45 84 -77 108 -141 107 -29 -1
-61 -3 -72 -6z"/>
</g>
</svg>
